solid OpenSCAD_Model
  facet normal 0 1 -2.96059e-16
    outer loop
      vertex 0 1.5 3.5
      vertex 1.5 1.5 2
      vertex -1.5 1.5 2
    endloop
  endfacet
  facet normal 0 1 -2.22045e-16
    outer loop
      vertex -1.5 1.5 2
      vertex 1.5 1.5 -2
      vertex -1.5 1.5 -2
    endloop
  endfacet
  facet normal 0 1 -2.22045e-16
    outer loop
      vertex 1.5 1.5 2
      vertex 1.5 1.5 -2
      vertex -1.5 1.5 2
    endloop
  endfacet
  facet normal 0 -1 2.96059e-16
    outer loop
      vertex -1.5 -1.5 2
      vertex 1.5 -1.5 2
      vertex 0 -1.5 3.5
    endloop
  endfacet
  facet normal 0 -1 2.22045e-16
    outer loop
      vertex -1.5 -1.5 -2
      vertex 1.5 -1.5 -2
      vertex -1.5 -1.5 2
    endloop
  endfacet
  facet normal 0 -1 2.22045e-16
    outer loop
      vertex -1.5 -1.5 2
      vertex 1.5 -1.5 -2
      vertex 1.5 -1.5 2
    endloop
  endfacet
  facet normal 0.707107 2.09346e-16 0.707107
    outer loop
      vertex 0 1.5 3.5
      vertex 1.5 -1.5 2
      vertex 1.5 1.5 2
    endloop
  endfacet
  facet normal 0.707107 2.09346e-16 0.707107
    outer loop
      vertex 0 1.5 3.5
      vertex 0 -1.5 3.5
      vertex 1.5 -1.5 2
    endloop
  endfacet
  facet normal -0.707107 2.09346e-16 0.707107
    outer loop
      vertex -1.5 1.5 2
      vertex 0 -1.5 3.5
      vertex 0 1.5 3.5
    endloop
  endfacet
  facet normal -0.707107 2.09346e-16 0.707107
    outer loop
      vertex -1.5 1.5 2
      vertex -1.5 -1.5 2
      vertex 0 -1.5 3.5
    endloop
  endfacet
  facet normal -1 0 0
    outer loop
      vertex -1.5 1.5 -2
      vertex -1.5 -1.5 2
      vertex -1.5 1.5 2
    endloop
  endfacet
  facet normal -1 0 0
    outer loop
      vertex -1.5 1.5 -2
      vertex -1.5 -1.5 -2
      vertex -1.5 -1.5 2
    endloop
  endfacet
  facet normal -0 -2.96059e-16 -1
    outer loop
      vertex 1.5 1.5 -2
      vertex -1.5 -1.5 -2
      vertex -1.5 1.5 -2
    endloop
  endfacet
  facet normal 0 -2.96059e-16 -1
    outer loop
      vertex 1.5 1.5 -2
      vertex 1.5 -1.5 -2
      vertex -1.5 -1.5 -2
    endloop
  endfacet
  facet normal 1 0 0
    outer loop
      vertex 1.5 1.5 2
      vertex 1.5 -1.5 -2
      vertex 1.5 1.5 -2
    endloop
  endfacet
  facet normal 1 0 0
    outer loop
      vertex 1.5 1.5 2
      vertex 1.5 -1.5 2
      vertex 1.5 -1.5 -2
    endloop
  endfacet
endsolid OpenSCAD_Model
